<?xml version="1.0" ?><!DOCTYPE svg  PUBLIC '-//W3C//DTD SVG 1.1//EN'  'http://www.w3.org/Graphics/SVG/1.1/DTD/svg11.dtd'><svg enable-background="new 0 0 512 512" height="512px" id="USB_1_" version="1.1" viewBox="0 0 512 512" width="512px" xml:space="preserve" xmlns="http://www.w3.org/2000/svg" xmlns:xlink="http://www.w3.org/1999/xlink"><g id="USB"><linearGradient gradientUnits="userSpaceOnUse" id="SVGID_1_" x1="110.8584" x2="401.1628" y1="339.959" y2="172.3517"><stop offset="0" style="stop-color:#F14D5C"/><stop offset="0.1309" style="stop-color:#F05454"/><stop offset="0.3346" style="stop-color:#ED663E"/><stop offset="0.3492" style="stop-color:#ED683C"/><stop offset="0.714" style="stop-color:#F3903F"/><stop offset="1" style="stop-color:#FDC70C"/></linearGradient><path d="M110.66,323.324v13.393c0,5.975,4.859,10.834,10.833,10.834h13.462   c5.974,0,10.833-4.859,10.833-10.834v-13.393c5.53-2.277,9.437-7.719,9.437-14.061V254.01c0-8.385-6.822-15.207-15.207-15.207   h-6.229v-52.799c0-34.774,24.934-60.997,57.997-60.997c33.634,0,60.996,27.363,60.996,60.997v139.992   c0,19.115,6.809,36.906,19.171,50.098c12.631,13.477,29.971,20.898,48.826,20.898s36.195-7.422,48.826-20.898   c12.306-13.131,19.104-30.822,19.165-49.838h0.006v-52.787h6.793c8.385,0,15.207-6.82,15.207-15.205V203.01   c0-6.342-3.906-11.784-9.437-14.062v-13.392c0-5.974-4.859-10.833-10.833-10.833h-13.462c-5.974,0-10.833,4.86-10.833,10.833   v13.392c-5.53,2.278-9.436,7.72-9.436,14.062v55.254c0,8.385,6.821,15.205,15.206,15.205h6.794v52.527   c0,34.773-24.934,60.996-57.997,60.996s-57.997-26.223-57.997-60.996V183.813h-0.056c-1.165-38.135-32.528-68.805-70.94-68.805   c-18.855,0-36.195,7.422-48.826,20.9c-12.213,13.031-18.992,30.555-19.155,49.405h-0.016v53.491h-7.357   c-8.385,0-15.206,6.822-15.206,15.207v55.253C101.225,315.605,105.13,321.047,110.66,323.324z M376.211,175.556   c0-0.459,0.374-0.833,0.833-0.833h13.462c0.459,0,0.833,0.374,0.833,0.833v12.248h-15.128V175.556z M366.775,258.264V203.01   c0-2.871,2.335-5.207,5.206-5.207h23.587c2.871,0,5.207,2.335,5.207,5.207v55.254c0,2.871-2.336,5.205-5.207,5.205h-23.587   C369.11,263.469,366.775,261.135,366.775,258.264z M135.788,336.717c0,0.459-0.374,0.834-0.833,0.834h-13.462   c-0.459,0-0.833-0.375-0.833-0.834v-12.248h15.128V336.717z M111.225,254.01c0-2.872,2.335-5.207,5.206-5.207h23.587   c2.871,0,5.207,2.335,5.207,5.207v55.253c0,2.871-2.336,5.205-5.207,5.205h-23.587c-2.871,0-5.206-2.334-5.206-5.205V254.01z" fill="url(#SVGID_1_)"/></g></svg>