<?xml version="1.0" ?><!DOCTYPE svg  PUBLIC '-//W3C//DTD SVG 1.1//EN'  'http://www.w3.org/Graphics/SVG/1.1/DTD/svg11.dtd'><svg enable-background="new 0 0 512 512" height="512px" id="website_x5F_alert_1_" version="1.1" viewBox="0 0 512 512" width="512px" xml:space="preserve" xmlns="http://www.w3.org/2000/svg" xmlns:xlink="http://www.w3.org/1999/xlink"><g id="website_x5F_alert"><linearGradient gradientUnits="userSpaceOnUse" id="SVGID_1_" x1="240.4507" x2="271.5485" y1="346.4834" y2="328.5291"><stop offset="0" style="stop-color:#EF5B4B"/><stop offset="0.1404" style="stop-color:#EF6347"/><stop offset="0.3492" style="stop-color:#EF783D"/><stop offset="0.714" style="stop-color:#EF783D"/><stop offset="1" style="stop-color:#F1853E"/></linearGradient><path d="M256,319.55c-9.901,0-17.958,8.056-17.958,17.957c0,9.902,8.057,17.958,17.958,17.958   c9.902,0,17.958-8.056,17.958-17.958C273.958,327.605,265.902,319.55,256,319.55z M256,345.465c-4.388,0-7.958-3.569-7.958-7.958   c0-4.388,3.57-7.957,7.958-7.957c4.389,0,7.958,3.569,7.958,7.957C263.958,341.896,260.389,345.465,256,345.465z" fill="url(#SVGID_1_)"/><linearGradient gradientUnits="userSpaceOnUse" id="SVGID_2_" x1="222.8975" x2="290.6026" y1="274.2461" y2="235.1565"><stop offset="0" style="stop-color:#EE6441"/><stop offset="0.3492" style="stop-color:#ED683C"/><stop offset="0.714" style="stop-color:#F3913E"/><stop offset="1" style="stop-color:#F8AD24"/></linearGradient><path d="M260.799,200.528h-9.598c-9.374,0-17,7.626-17,17l3,77.049c0.058,9.325,7.661,16.895,17,16.895   h3.598c9.339,0,16.943-7.569,17-16.895l2.996-76.854l0.004-0.195C277.799,208.154,270.174,200.528,260.799,200.528z    M264.803,294.276l-0.004,0.195c0,3.859-3.14,7-7,7h-3.598c-3.86,0-7-3.141-7-7l-3-77.028c0.046-3.821,3.168-6.916,7-6.916h9.598   c3.832,0,6.955,3.095,7,6.916L264.803,294.276z" fill="url(#SVGID_2_)"/><linearGradient gradientUnits="userSpaceOnUse" id="SVGID_3_" x1="91.104" x2="420.895" y1="351.2021" y2="160.7972"><stop offset="0" style="stop-color:#F14D5C"/><stop offset="0.1309" style="stop-color:#F05454"/><stop offset="0.3346" style="stop-color:#ED663E"/><stop offset="0.3492" style="stop-color:#ED683C"/><stop offset="0.714" style="stop-color:#F3903F"/><stop offset="1" style="stop-color:#FDC70C"/></linearGradient><path d="M365.345,122.771H146.655c-32.099,0-58.212,26.114-58.212,58.212v150.035   c0,32.099,26.113,58.212,58.212,58.212h218.689c32.099,0,58.212-26.113,58.212-58.212V180.982   C423.557,148.884,397.443,122.771,365.345,122.771z M146.655,132.771h218.689c21.298,0,39.402,13.887,45.765,33.078H100.891   C107.253,146.658,125.357,132.771,146.655,132.771z M413.557,331.018c0,26.584-21.627,48.212-48.212,48.212H146.655   c-26.584,0-48.212-21.628-48.212-48.212V180.982c0-1.734,0.097-3.446,0.276-5.134h314.562c0.18,1.688,0.275,3.4,0.275,5.134   V331.018z" fill="url(#SVGID_3_)"/><circle cx="143.665" cy="150.416" fill="#F07F3E" r="5.749"/><circle cx="168.102" cy="150.416" fill="#F07F3E" r="5.749"/><circle cx="192.887" cy="150.416" fill="#F07F3E" r="5.749"/></g></svg>