<?xml version="1.0" ?><!DOCTYPE svg  PUBLIC '-//W3C//DTD SVG 1.1//EN'  'http://www.w3.org/Graphics/SVG/1.1/DTD/svg11.dtd'><svg enable-background="new 0 0 512 512" height="512px" id="eyedropper_1_" version="1.1" viewBox="0 0 512 512" width="512px" xml:space="preserve" xmlns="http://www.w3.org/2000/svg" xmlns:xlink="http://www.w3.org/1999/xlink"><g id="eyedropper"><linearGradient gradientUnits="userSpaceOnUse" id="SVGID_1_" x1="84.7188" x2="444.6678" y1="367.4551" y2="159.6384"><stop offset="0" style="stop-color:#F14D5C"/><stop offset="0.1309" style="stop-color:#F05454"/><stop offset="0.3346" style="stop-color:#ED663E"/><stop offset="0.3492" style="stop-color:#ED683C"/><stop offset="0.714" style="stop-color:#F3903F"/><stop offset="1" style="stop-color:#FDC70C"/></linearGradient><path d="M394.751,93.026c-5.983-5.983-13.938-9.279-22.401-9.279c-8.462,0-16.418,3.295-22.401,9.279   l-39.774,46.73l-3.623-3.623c-3.702-3.702-8.623-5.74-13.857-5.74s-10.155,2.039-13.856,5.74   c-3.702,3.701-5.741,8.623-5.741,13.857c0,5.235,2.039,10.156,5.741,13.857l6.313,6.314l-91.549,91.549   c-7.972-2.414-16.255-3.643-24.673-3.643c-46.92,0-85.093,38.172-85.093,85.092s38.173,85.092,85.093,85.092   s85.092-38.172,85.092-85.092c0-8.514-1.255-16.881-3.72-24.92l91.464-91.464l6.477,6.477c3.702,3.702,8.623,5.74,13.857,5.74   s10.155-2.039,13.856-5.74c3.702-3.701,5.741-8.623,5.741-13.857c0-5.235-2.039-10.156-5.741-13.857l-3.784-3.784l46.435-39.503   l0.295-0.272c12.353-12.353,12.353-32.451,0-44.804L394.751,93.026z M244.021,343.16c0,41.406-33.687,75.092-75.092,75.092   c-41.406,0-75.093-33.686-75.093-75.092s33.687-75.092,75.093-75.092c5.587,0,11.103,0.623,16.485,1.83l-7.383,7.383   c-6.55,6.549-6.631,17.141-0.269,23.809c-2.883-0.604-5.832-0.916-8.834-0.916c-23.703,0-42.987,19.283-42.987,42.986   s19.284,42.986,42.987,42.986c19.284,0,36.326-12.969,41.444-31.539c0.724-2.627,1.198-5.34,1.411-8.066l-9.971-0.775   c-0.162,2.09-0.526,4.172-1.081,6.184c-3.927,14.248-17.005,24.197-31.804,24.197c-18.189,0-32.987-14.797-32.987-32.986   s14.798-32.986,32.987-32.986c3.091,0,6.111,0.424,9.027,1.252l-6.21,6.213c-6.216,6.215-6.216,16.328,0,22.543   c3.011,3.01,7.014,4.668,11.271,4.668c4.258,0,8.261-1.658,11.271-4.668l6.287-6.287c2.748-2.748,7.219-2.746,9.965,0   c3.22,3.221,7.501,4.992,12.054,4.992s8.834-1.771,12.053-4.992l7.484-7.484C243.376,331.873,244.021,337.477,244.021,343.16z    M227.574,326.824c-1.33,1.33-3.1,2.063-4.981,2.063s-3.651-0.732-4.982-2.064c-6.646-6.645-17.462-6.645-24.106,0.002   l-6.288,6.287c-1.121,1.121-2.612,1.738-4.199,1.738c-1.586,0-3.078-0.617-4.2-1.74c-2.315-2.314-2.315-6.084,0.001-8.4   l6.285-6.285c3.22-3.221,4.993-7.5,4.993-12.055c0-4.553-1.773-8.834-4.992-12.053c-2.748-2.748-2.748-7.219-0.001-9.965   l107.119-107.119l17.781,17.782l-8.626,8.626l7.07,7.071l8.627-8.627l17.619,17.62L227.574,326.824z M368.884,226.182   c-1.813,1.813-4.222,2.811-6.785,2.811s-4.973-0.998-6.785-2.811l-34.748-34.748l-28.344-28.344l0,0l-6.314-6.314   c-1.813-1.813-2.812-4.223-2.812-6.786c0-2.563,0.999-4.973,2.813-6.786c1.813-1.813,4.222-2.811,6.785-2.811   s4.973,0.998,6.786,2.811l4.191,4.192l0,0l30.43,30.429l34.784,34.784c1.813,1.813,2.812,4.223,2.812,6.786   C371.696,221.959,370.697,224.369,368.884,226.182z M411.964,154.771l-46.887,39.889l-47.811-47.811l39.888-46.887   c4.08-4.01,9.468-6.215,15.195-6.215c5.792,0,11.236,2.255,15.331,6.35l24.149,24.148   C420.237,132.654,420.283,146.308,411.964,154.771z" fill="url(#SVGID_1_)"/><linearGradient gradientUnits="userSpaceOnUse" id="SVGID_2_" x1="256.2158" x2="300.8081" y1="246.4492" y2="220.7039"><stop offset="0" style="stop-color:#F07A3D"/><stop offset="0.3492" style="stop-color:#F1803E"/><stop offset="0.714" style="stop-color:#F1823E"/><stop offset="1" style="stop-color:#F2873E"/></linearGradient><polygon fill="url(#SVGID_2_)" points="257.077,247.941 264.147,255.012 299.947,219.212 292.877,212.141  "/></g></svg>