<?xml version="1.0" ?><!DOCTYPE svg  PUBLIC '-//W3C//DTD SVG 1.1//EN'  'http://www.w3.org/Graphics/SVG/1.1/DTD/svg11.dtd'><svg enable-background="new 0 0 512 512" height="512px" id="document_1_" version="1.1" viewBox="0 0 512 512" width="512px" xml:space="preserve" xmlns="http://www.w3.org/2000/svg" xmlns:xlink="http://www.w3.org/1999/xlink"><g id="document"><linearGradient gradientUnits="userSpaceOnUse" id="SVGID_1_" x1="104.1528" x2="387.5078" y1="343.6689" y2="180.0739"><stop offset="0" style="stop-color:#F14D5C"/><stop offset="0.1309" style="stop-color:#F05454"/><stop offset="0.3346" style="stop-color:#ED663E"/><stop offset="0.3492" style="stop-color:#ED683C"/><stop offset="0.714" style="stop-color:#F3903F"/><stop offset="1" style="stop-color:#FDC70C"/></linearGradient><path d="M169,422h174c18.748,0,34-15.252,34-34V171.012c0-9.082-3.537-17.62-9.958-24.042l-47.013-47.012   C313.608,93.537,305.07,90,295.988,90H169c-18.748,0-34,15.252-34,34v264C135,406.748,150.252,422,169,422z M359.971,154.042   c0.469,0.469,0.911,0.958,1.336,1.458H327.5c-9.374,0-17-7.626-17-17v-33.613c0.858,0.654,1.682,1.367,2.459,2.143L359.971,154.042   z M145,124c0-13.233,10.767-24,24-24h126.988c1.531,0,3.039,0.146,4.512,0.425V138.5c0,14.888,12.112,27,27,27h38.861   c0.418,1.787,0.639,3.632,0.639,5.512V388c0,13.233-10.767,24-24,24H169c-13.233,0-24-10.767-24-24V124z" fill="url(#SVGID_1_)"/><linearGradient gradientUnits="userSpaceOnUse" id="SVGID_2_" x1="171.4492" x2="211.7164" y1="168.2896" y2="145.0413"><stop offset="0" style="stop-color:#F14D5C"/><stop offset="0.1309" style="stop-color:#F05454"/><stop offset="0.3346" style="stop-color:#ED663E"/><stop offset="0.3492" style="stop-color:#ED683C"/><stop offset="0.714" style="stop-color:#F3903F"/><stop offset="1" style="stop-color:#FDC70C"/></linearGradient><rect fill="url(#SVGID_2_)" height="10" width="47.917" x="167.625" y="151.667"/><linearGradient gradientUnits="userSpaceOnUse" id="SVGID_3_" x1="300.2617" x2="340.5289" y1="380.29" y2="357.0417"><stop offset="0" style="stop-color:#F14D5C"/><stop offset="0.1309" style="stop-color:#F05454"/><stop offset="0.3346" style="stop-color:#ED663E"/><stop offset="0.3492" style="stop-color:#ED683C"/><stop offset="0.714" style="stop-color:#F3903F"/><stop offset="1" style="stop-color:#FDC70C"/></linearGradient><rect fill="url(#SVGID_3_)" height="10" width="47.916" x="296.438" y="363.666"/><linearGradient gradientUnits="userSpaceOnUse" id="SVGID_4_" x1="187.5508" x2="324.4272" y1="267.0127" y2="187.9871"><stop offset="0" style="stop-color:#F14D5C"/><stop offset="0.1309" style="stop-color:#F05454"/><stop offset="0.3346" style="stop-color:#ED663E"/><stop offset="0.3492" style="stop-color:#ED683C"/><stop offset="0.714" style="stop-color:#F3903F"/><stop offset="1" style="stop-color:#FDC70C"/></linearGradient><rect fill="url(#SVGID_4_)" height="10" width="176.729" x="167.625" y="222.5"/><linearGradient gradientUnits="userSpaceOnUse" id="SVGID_5_" x1="187.5508" x2="324.4272" y1="337.5957" y2="258.5701"><stop offset="0" style="stop-color:#F14D5C"/><stop offset="0.1309" style="stop-color:#F05454"/><stop offset="0.3346" style="stop-color:#ED663E"/><stop offset="0.3492" style="stop-color:#ED683C"/><stop offset="0.714" style="stop-color:#F3903F"/><stop offset="1" style="stop-color:#FDC70C"/></linearGradient><rect fill="url(#SVGID_5_)" height="10" width="176.729" x="167.625" y="293.084"/></g></svg>