<?xml version="1.0" ?><!DOCTYPE svg  PUBLIC '-//W3C//DTD SVG 1.1//EN'  'http://www.w3.org/Graphics/SVG/1.1/DTD/svg11.dtd'><svg enable-background="new 0 0 512 512" height="512px" id="color_x5F_pallete_1_" version="1.1" viewBox="0 0 512 512" width="512px" xml:space="preserve" xmlns="http://www.w3.org/2000/svg" xmlns:xlink="http://www.w3.org/1999/xlink"><g id="color_x5F_pallete"><linearGradient gradientUnits="userSpaceOnUse" id="SVGID_1_" x1="84.6348" x2="385.8315" y1="354.9375" y2="181.0415"><stop offset="0" style="stop-color:#F14D5C"/><stop offset="0.1309" style="stop-color:#F05454"/><stop offset="0.3346" style="stop-color:#ED663E"/><stop offset="0.3492" style="stop-color:#ED683C"/><stop offset="0.714" style="stop-color:#F3903F"/><stop offset="1" style="stop-color:#FDC70C"/></linearGradient><path d="M376.776,286.533h-57.758l58.362-58.247c16.274-16.274,16.274-42.754,0-59.028l-34.3-34.301   c-16.274-16.274-42.754-16.273-59.025-0.003l-58.589,58.473v-58.203c0-23.015-18.725-41.739-41.74-41.739h-48.5   c-23.016,0-41.74,18.725-41.74,41.739v193.05v24.129c0,0.041-0.003,0.08-0.003,0.121c0,17.627,6.864,34.199,19.329,46.664   l3.536-3.535l-3.536,3.535c12.465,12.465,29.037,19.328,46.664,19.328c0.034,0,0.067-0.002,0.101-0.002h24.149h193.05   c23.016,0,41.74-18.725,41.74-41.74v-48.5C418.517,305.258,399.792,286.533,376.776,286.533z M291.123,142.028   c6.188-6.188,14.316-9.281,22.443-9.281c8.128,0,16.256,3.094,22.443,9.281l34.301,34.301   c12.375,12.375,12.375,32.511,0.003,44.883l-7.37,7.354l-79.186-79.187L291.123,142.028z M135.227,103.484h48.5   c17.501,0,31.74,14.238,31.74,31.739v68.184L112.813,305.858c-3.588,3.589-6.696,7.526-9.326,11.723V135.224   C103.486,117.723,117.725,103.484,135.227,103.484z M103.483,352.523h0.003v-0.121c0.031-14.911,5.85-28.926,16.395-39.469   L276.68,156.444l79.186,79.187L199.07,392.116c-10.552,10.552-24.574,16.371-39.493,16.397h-0.101v0.002   c-14.956,0-29.018-5.824-39.593-16.4C109.309,381.541,103.484,367.479,103.483,352.523z M408.517,376.773   c0,17.502-14.239,31.74-31.74,31.74H194.419c4.195-2.629,8.132-5.736,11.719-9.322l102.86-102.658h67.778   c17.501,0,31.74,14.239,31.74,31.74V376.773z" fill="url(#SVGID_1_)"/><linearGradient gradientUnits="userSpaceOnUse" id="SVGID_2_" x1="134.6094" x2="184.3435" y1="366.8809" y2="338.1669"><stop offset="0" style="stop-color:#F14D5C"/><stop offset="0.2244" style="stop-color:#F05354"/><stop offset="0.3492" style="stop-color:#EF594D"/><stop offset="0.714" style="stop-color:#EF5D49"/><stop offset="1" style="stop-color:#ED6A3C"/></linearGradient><path d="M159.477,381.243c15.836,0,28.72-12.884,28.72-28.72s-12.884-28.719-28.72-28.719   s-28.72,12.883-28.72,28.719S143.641,381.243,159.477,381.243z M159.477,333.805c10.322,0,18.72,8.396,18.72,18.719   s-8.397,18.72-18.72,18.72s-18.72-8.397-18.72-18.72S149.154,333.805,159.477,333.805z" fill="url(#SVGID_2_)"/></g></svg>