<?xml version="1.0" ?><!DOCTYPE svg  PUBLIC '-//W3C//DTD SVG 1.1//EN'  'http://www.w3.org/Graphics/SVG/1.1/DTD/svg11.dtd'><svg enable-background="new 0 0 512 512" height="512px" id="graphic_x5F_file_1_" version="1.1" viewBox="0 0 512 512" width="512px" xml:space="preserve" xmlns="http://www.w3.org/2000/svg" xmlns:xlink="http://www.w3.org/1999/xlink"><g id="graphic_x5F_file"><linearGradient gradientUnits="userSpaceOnUse" id="SVGID_1_" x1="104.1528" x2="387.4831" y1="343.6689" y2="180.0881"><stop offset="0" style="stop-color:#F14D5C"/><stop offset="0.1309" style="stop-color:#F05454"/><stop offset="0.3346" style="stop-color:#ED663E"/><stop offset="0.3492" style="stop-color:#ED683C"/><stop offset="0.714" style="stop-color:#F3903F"/><stop offset="1" style="stop-color:#FDC70C"/></linearGradient><path d="M320.021,99.949c-3.623-3.611-8.078-6.4-12.869-8.059C303.566,90.636,299.812,90,295.99,90H169   c-18.748,0-34,15.252-34,34v264c0,18.748,15.252,34,34,34h174c18.748,0,34-15.252,34-34V171.01c0-8.949-3.629-17.71-9.955-24.036   L320.021,99.949z M359.975,154.045c0.466,0.465,0.905,0.954,1.328,1.455h-33.804c-9.374,0-17-7.626-17-17v-33.598   c0.864,0.654,1.689,1.36,2.456,2.124L359.975,154.045z M367,388c0,13.233-10.767,24-24,24H169c-13.233,0-24-10.767-24-24V124   c0-13.233,10.767-24,24-24h126.99c1.523,0,3.027,0.159,4.509,0.444V138.5c0,14.888,12.112,27,27,27h38.845   c0.428,1.798,0.656,3.647,0.656,5.51V388z" fill="url(#SVGID_1_)"/><linearGradient gradientUnits="userSpaceOnUse" id="SVGID_2_" x1="168.9443" x2="345.0932" y1="333.9961" y2="232.2965"><stop offset="0" style="stop-color:#F14D5C"/><stop offset="0.1309" style="stop-color:#F05454"/><stop offset="0.3346" style="stop-color:#ED663E"/><stop offset="0.3492" style="stop-color:#ED683C"/><stop offset="0.714" style="stop-color:#F3903F"/><stop offset="1" style="stop-color:#FDC70C"/></linearGradient><path d="M261.83,313.582l58.314-114.47c2.655-5.213,0.77-11.593-4.293-14.524l-12.324-7.136   c-5.063-2.93-11.535-1.39-14.733,3.508L218.55,288.523c-1.645,2.519-2.188,5.642-1.492,8.568c0.154,0.648,0.377,1.274,0.644,1.879   c-8.124,1.754-15.51,6.79-19.994,14.531c-2.979,5.146-2.524,11.721-1.998,19.334c0.249,3.59,0.505,7.303,0.459,11.275   c-0.058,4.992-2.129,11.444-5.989,18.662c-1.729,3.23-1.237,7.051,1.252,9.732c1.547,1.668,3.594,2.586,5.725,2.689v0.014h0.284   c0.038,0.001,0.076,0.006,0.114,0.006c0.037,0,0.074-0.005,0.111-0.006h47.491v-10h-24.485   c16.599-8.428,26.624-15.506,29.872-21.115c4.481-7.741,5.173-16.653,2.65-24.571c0.656-0.069,1.31-0.19,1.949-0.38   C258.028,318.289,260.465,316.263,261.83,313.582z M297.167,186.428c0.293-0.449,0.889-0.591,1.35-0.321l12.324,7.136   c0.464,0.269,0.637,0.854,0.394,1.331l-46.654,91.581l-23.611-13.671L297.167,186.428z M226.923,293.99l8.569-13.121l24.542,14.209   l-7.114,13.966c-0.163,0.319-0.423,0.452-0.612,0.509c-0.188,0.056-0.481,0.087-0.793-0.095l-10.47-6.062   c-0.528-0.352-1.066-0.694-1.623-1.017s-1.122-0.618-1.689-0.901l-10.47-6.063c-0.311-0.18-0.43-0.447-0.476-0.64   S226.727,294.291,226.923,293.99z M241.89,339.083c-2.287,3.95-14.262,12.377-40.897,24.443c3.372-7.163,5.111-13.641,5.176-19.3   c0.051-4.376-0.232-8.469-0.482-12.08c-0.413-5.976-0.77-11.137,0.676-13.634c3.801-6.565,10.708-10.237,17.798-10.237   c2.989,0,6.01,0.658,8.845,2.021l2.506,1.451C244.437,317.702,247.339,329.67,241.89,339.083z" fill="url(#SVGID_2_)"/><linearGradient gradientUnits="userSpaceOnUse" id="SVGID_3_" x1="265.4912" x2="316.8218" y1="385.0264" y2="355.3906"><stop offset="0" style="stop-color:#F14D5C"/><stop offset="0.1309" style="stop-color:#F05454"/><stop offset="0.3346" style="stop-color:#ED663E"/><stop offset="0.3492" style="stop-color:#ED683C"/><stop offset="0.714" style="stop-color:#F3903F"/><stop offset="1" style="stop-color:#FDC70C"/></linearGradient><rect fill="url(#SVGID_3_)" height="10" width="62.667" x="259.823" y="365.209"/></g></svg>