<?xml version="1.0" ?><!DOCTYPE svg  PUBLIC '-//W3C//DTD SVG 1.1//EN'  'http://www.w3.org/Graphics/SVG/1.1/DTD/svg11.dtd'><svg enable-background="new 0 0 512 512" height="512px" id="save_x5F_floppy_x5F_disk_1_" version="1.1" viewBox="0 0 512 512" width="512px" xml:space="preserve" xmlns="http://www.w3.org/2000/svg" xmlns:xlink="http://www.w3.org/1999/xlink"><g id="save_x5F_floppy_x5F_disk"><linearGradient gradientUnits="userSpaceOnUse" id="SVGID_1_" x1="80.8276" x2="406.8663" y1="357.1357" y2="168.8972"><stop offset="0" style="stop-color:#F14D5C"/><stop offset="0.1309" style="stop-color:#F05454"/><stop offset="0.3346" style="stop-color:#ED663E"/><stop offset="0.3492" style="stop-color:#ED683C"/><stop offset="0.714" style="stop-color:#F3903F"/><stop offset="1" style="stop-color:#FDC70C"/></linearGradient><path d="M345.411,105.085c-4.163-4.163-9.697-6.455-15.585-6.455h-1.242H183.415h-57.401   c-12.152,0-22.039,9.887-22.039,22.039V391.33c0,12.152,9.887,22.039,22.039,22.039H165h182h38.985   c12.153,0,22.04-9.887,22.04-22.039V176.828c0-5.887-2.293-11.421-6.455-15.584L345.411,105.085z M318.584,108.63v48.71   c0,4.427-3.602,8.029-8.029,8.029h-84.666V108.63H318.584z M215.889,108.63v56.739h-14.444c-4.427,0-8.029-3.602-8.029-8.029   v-48.71H215.889z M175,403.369V300.34h162v103.029H175z M337,290.34H175v-27.223c0-5.023,4.087-9.111,9.11-9.111h143.778   c5.023,0,9.111,4.087,9.111,9.111V290.34z M398.025,391.33c0,6.639-5.401,12.039-12.04,12.039H347V263.117   c0-10.537-8.574-19.11-19.111-19.11H184.11c-10.537,0-19.11,8.573-19.11,19.11v140.252h-38.986c-6.638,0-12.039-5.4-12.039-12.039   V120.669c0-6.638,5.401-12.039,12.039-12.039h57.401v48.71c0,9.941,8.088,18.029,18.029,18.029h109.11   c9.941,0,18.029-8.088,18.029-18.029v-48.71h1.242c3.217,0,6.24,1.252,8.514,3.526l56.158,56.159   c2.274,2.274,3.527,5.297,3.527,8.513V391.33z" fill="url(#SVGID_1_)"/></g></svg>